# xmcd
#
# Track frame offsets:
# 150
# 17030
# 34625
# 46105
# 60110
# 79590
# 93795
# 109202
# 122167
# 137042
#
# Disc length: 2075 seconds
#
#
# Revision: 4
# Processed by: cddbd v1.5.1PL2 Copyright (c) Steve Scherf et al.
# Submitted via: FreeRIP 2.931 
#
DISCID=6f08190a
DTITLE=Garth Brooks - No Fences
DYEAR=1990
DGENRE=Country
TTITLE0=The Thunder Rolls
TTITLE1=New Way To Fly
TTITLE2=Two Of A Kind, Workin' On A Full House
TTITLE3=Victim Of The Game
TTITLE4=Friends In Low Places
TTITLE5=Wild Horses
TTITLE6=Unanswered Prayers
TTITLE7=Same Old Story
TTITLE8=Mr. Blue
TTITLE9=Wolves
EXTD=Produced by ALLEN REYNOLDS\nCapitol 
EXTT0=
EXTT1=
EXTT2=
EXTT3=
EXTT4=
EXTT5=
EXTT6=
EXTT7=
EXTT8=
EXTT9=
PLAYORDER=
